# xmcd
#
# Track frame offsets:
#	182
#	10560
#	43332
#	59857
#	82285
#	99390
#	114385
#	122970
#	137362
#	146820
#	159730
#	172957
#	184425
#	195247
#	205350
#	215380
#
# Disc length: 3044 seconds
#
# Revision: 1
# Processed by: cddbd v1.5.2PL0 Copyright (c) Steve Scherf et al.
# Submitted via: audiograbber 1.83.01
#
DISCID=ef0be210
DTITLE=Sly and the Family Stone - Seventh Son
DYEAR=1992
DGENRE=Soul
TTITLE0=Seventh Son
TTITLE1=Somebody Dance With You
TTITLE2=Sheer Energy
TTITLE3=It Takes All Kinds
TTITLE4=Somethin' That'll Make You Lough
TTITLE5=Remember Who You Are
TTITLE6=Who's To Say
TTITLE7=Back On The Right Track
TTITLE8=If It's Not Adding Up
TTITLE9=Honest
TTITLE10=In The Still Of The Nite
TTITLE11=Searchin'
TTITLE12=Don't Say I Didn't Warn You
TTITLE13=Swim
TTITLE14=Every Dog Has His Day
TTITLE15=Let Me Hear You Say Yeh
EXTD=
EXTT0=
EXTT1=
EXTT2=
EXTT3=
EXTT4=
EXTT5=
EXTT6=
EXTT7=
EXTT8=
EXTT9=
EXTT10=
EXTT11=
EXTT12=
EXTT13=
EXTT14=
EXTT15=
PLAYORDER=
